<svg xmlns="http://www.w3.org/2000/svg" viewBox="0 0 512 512">
  <defs>
    <linearGradient id="grad" x1="0%" y1="0%" x2="100%" y2="100%">
      <stop offset="0%" style="stop-color:#f97316;stop-opacity:1" />
      <stop offset="100%" style="stop-color:#ea580c;stop-opacity:1" />
    </linearGradient>
  </defs>
  <!-- Background circle -->
  <circle cx="256" cy="256" r="240" fill="url(#grad)"/>
  <!-- Map pin icon -->
  <g transform="translate(128, 96) scale(1)">
    <path fill="#ffffff" d="M128 0C74.98 0 32 42.98 32 96c0 77.41 96 224 96 224s96-146.59 96-224c0-53.02-42.98-96-96-96zm0 144c-26.51 0-48-21.49-48-48s21.49-48 48-48 48 21.49 48 48-21.49 48-48 48z"/>
  </g>
  <!-- Camera icon overlay -->
  <g transform="translate(180, 200) scale(0.6)">
    <path fill="#ffffff" opacity="0.9" d="M220 64h-29.37l-27.13-27.13c-3-3-7.07-4.87-11.31-4.87H99.81c-4.24 0-8.31 1.87-11.31 4.87L61.37 64H32c-17.67 0-32 14.33-32 32v160c0 17.67 14.33 32 32 32h188c17.67 0 32-14.33 32-32V96c0-17.67-14.33-32-32-32zM126 256c-41.42 0-75-33.58-75-75s33.58-75 75-75 75 33.58 75 75-33.58 75-75 75z"/>
  </g>
</svg>